<svg width="73" height="15" viewBox="0 0 73 15" fill="none" xmlns="http://www.w3.org/2000/svg">
<path fill-rule="evenodd" clip-rule="evenodd" d="M42.1551 8.80643H40.7537C40.6155 8.79901 40.5066 8.68335 40.5048 8.54201V1.17046C40.5196 1.0305 40.6371 0.92552 40.7749 0.928982H42.0792C42.1979 0.932875 42.2997 1.01703 42.3281 1.13488V2.26222H42.3555C42.7487 1.25435 43.3001 0.773926 44.2708 0.773926C44.9006 0.773926 45.5154 1.00651 45.9124 1.64199C46.2795 2.23171 46.2795 3.22433 46.2795 3.93734V8.57506C46.259 8.71037 46.1435 8.80926 46.0095 8.80643H44.5957C44.4688 8.80083 44.3641 8.70346 44.3467 8.57506V4.57281C44.3467 4.5107 44.3473 4.44637 44.3479 4.38054V4.37995V4.37935V4.37875C44.3546 3.59069 44.3632 2.58758 43.4668 2.58758C43.1059 2.60462 42.7879 2.83505 42.6529 3.1773C42.4563 3.62722 42.4301 4.07714 42.4301 4.57536V8.54201C42.4247 8.69164 42.3029 8.80925 42.1563 8.80643H42.1551ZM36.2186 0.78409C38.3057 0.78409 39.4345 2.61427 39.4345 4.94012C39.4345 7.18844 38.1899 8.97159 36.2186 8.97159C34.1713 8.97159 33.0561 7.14141 33.0561 4.86259C33.0561 2.58376 34.185 0.78409 36.2186 0.78409ZM36.2323 2.2889C35.1955 2.2889 35.1296 3.73017 35.1296 4.63001V4.65983C35.1294 5.57156 35.1292 7.45153 36.2186 7.45153C37.32 7.45153 37.3611 5.90096 37.3611 4.95537C37.3611 4.33515 37.3349 3.59036 37.1507 3.00191C36.9927 2.49353 36.6778 2.2889 36.2323 2.2889ZM10.2372 8.8217H8.83214C8.7018 8.81471 8.59599 8.71152 8.58323 8.57887V1.20732C8.58796 1.0596 8.70734 0.942774 8.85206 0.944234H10.1626C10.2969 0.9518 10.4041 1.0613 10.4115 1.19843V2.16054H10.4376C10.7786 1.22893 11.4221 0.795533 12.2883 0.795533C13.1545 0.795533 13.7183 1.22893 14.1128 2.16054C14.3762 1.4436 14.9977 0.927424 15.7387 0.810217C16.4797 0.693009 17.225 0.992986 17.6884 1.59496C18.0707 2.12566 18.0584 2.86479 18.0469 3.55916V3.55918V3.5592V3.55922V3.55924V3.55926V3.55928V3.5593C18.045 3.6764 18.0431 3.79222 18.0431 3.90556V8.55599C18.0418 8.62802 18.0124 8.69654 17.9615 8.7464C17.9106 8.79625 17.8423 8.82332 17.7718 8.8217H16.3667C16.2284 8.81426 16.1195 8.6986 16.1178 8.55726V4.65034C16.1178 4.59117 16.1187 4.51506 16.1198 4.42859V4.42856V4.42854V4.42851V4.42849V4.42846V4.42844V4.42841C16.1244 4.06168 16.1313 3.50865 16.0779 3.27008C15.9734 2.77441 15.6585 2.63461 15.2516 2.63461C14.8785 2.64624 14.5481 2.88367 14.4115 3.23831C14.2774 3.58526 14.2786 4.14368 14.2794 4.55749L14.2796 4.65034V8.55599C14.2782 8.62779 14.2491 8.69612 14.1984 8.74594C14.1478 8.79576 14.0798 8.82298 14.0095 8.8217H12.6007C12.4627 8.81365 12.3541 8.69835 12.3517 8.55726V4.65034C12.3517 4.57028 12.3529 4.48653 12.3541 4.40058C12.3654 3.60366 12.3793 2.61681 11.4806 2.61681C10.5084 2.61681 10.5092 3.73998 10.5098 4.58921L10.5098 4.65034V8.55599C10.5085 8.62802 10.4791 8.69654 10.4282 8.7464C10.3773 8.79625 10.309 8.82332 10.2385 8.8217H10.2372ZM6.0543 8.91186C6.16104 8.97325 6.29405 8.95952 6.3866 8.87754L6.3978 8.88009C6.67782 8.62462 7.18809 8.17216 7.47558 7.92687C7.5851 7.83155 7.56519 7.67268 7.47558 7.54558C7.44823 7.50713 7.4207 7.46943 7.39333 7.43196C7.16291 7.11648 6.94416 6.81698 6.94416 6.21489V3.97928C6.94416 3.90707 6.94451 3.8353 6.94486 3.76402C6.94913 2.90071 6.95303 2.11072 6.32188 1.50727C5.78423 0.978549 4.89064 0.79299 4.20614 0.79299C2.86824 0.79299 1.37478 1.30264 1.06239 2.99047C1.04944 3.05878 1.06447 3.12953 1.10399 3.18621C1.1435 3.24289 1.20403 3.28056 1.27148 3.29042L2.62306 3.44166C2.75506 3.42122 2.85715 3.31279 2.87197 3.1773C2.98896 2.59648 3.46687 2.3156 4.00327 2.3156C4.2945 2.3156 4.62057 2.42363 4.79232 2.68799C4.96859 2.95344 4.96585 3.30569 4.96339 3.62209C4.96311 3.65866 4.96283 3.69475 4.96283 3.73017V3.91573C4.83521 3.93045 4.70146 3.9444 4.56369 3.95876L4.56363 3.95877L4.56352 3.95878L4.56341 3.95879L4.56329 3.9588L4.56321 3.95881L4.56315 3.95882L4.56311 3.95882L4.56308 3.95882L4.56308 3.95882C3.82102 4.03618 2.96269 4.12566 2.31939 4.41394C1.4482 4.80286 0.825928 5.59466 0.825928 6.76013C0.825928 8.25223 1.7469 8.99829 2.93047 8.99829C3.92985 8.99829 4.47621 8.75807 5.24907 7.95483C5.28634 8.01023 5.31995 8.06144 5.35167 8.10976L5.35167 8.10976C5.53604 8.39063 5.65609 8.57352 6.0543 8.91186ZM4.96909 5.44692L4.96905 5.37733V5.06849C3.95225 5.06849 2.8782 5.2909 2.8782 6.51356C2.8782 7.13633 3.19307 7.55575 3.73196 7.55575C4.12773 7.55575 4.48243 7.30664 4.70645 6.90248C4.97001 6.42385 4.96959 5.97557 4.96909 5.44692ZM25.9024 7.5405C25.8751 7.50198 25.8475 7.46423 25.8201 7.4267C25.5897 7.1113 25.371 6.81192 25.371 6.21108V3.97419C25.371 3.89736 25.3715 3.82103 25.3719 3.74529C25.3768 2.88638 25.3812 2.10251 24.7487 1.50218C24.2099 0.973466 23.3163 0.787907 22.633 0.787907C21.2951 0.787907 19.8016 1.29629 19.488 2.98539C19.4747 3.05408 19.4897 3.12534 19.5295 3.18236C19.5693 3.23937 19.6304 3.27709 19.6983 3.28661L21.0611 3.43658C21.1929 3.41573 21.2948 3.30751 21.31 3.17222C21.4283 2.59139 21.9037 2.31051 22.4401 2.31051C22.7301 2.31051 23.0624 2.41981 23.2291 2.68417C23.4066 2.94864 23.4039 3.30102 23.4015 3.61754C23.4012 3.65393 23.4009 3.68984 23.4009 3.72509V3.90683C23.2757 3.92108 23.1446 3.93461 23.0095 3.94854C22.2653 4.02534 21.4022 4.1144 20.7575 4.40378C19.8763 4.79269 19.2578 5.58449 19.2578 6.75123C19.2578 8.24206 20.1787 8.98812 21.3623 8.98812C22.358 8.98812 22.9081 8.7479 23.6797 7.94466C23.7164 7.99922 23.7495 8.04965 23.7807 8.09717L23.7808 8.09718C23.9678 8.38169 24.0862 8.5619 24.4861 8.90169C24.5928 8.96266 24.7253 8.94948 24.8184 8.86864C25.0985 8.61445 25.6087 8.16072 25.8962 7.91543C26.0169 7.82773 25.997 7.67268 25.9024 7.5405ZM23.1395 6.89612C22.9168 7.29902 22.5608 7.54812 22.1663 7.54812C21.6274 7.54812 21.3125 7.12871 21.3125 6.50721C21.3125 5.28328 22.3866 5.06213 23.4034 5.06213V5.37225L23.4034 5.42923C23.4037 5.96449 23.404 6.41489 23.1395 6.89612ZM27.0922 2.23171V1.1819C27.089 1.11003 27.1157 1.0401 27.1657 0.98947C27.2158 0.938836 27.2845 0.912238 27.3548 0.916273H31.9759C32.0461 0.913842 32.1143 0.940835 32.1646 0.990993C32.2149 1.04115 32.2429 1.11012 32.2422 1.1819V2.08555C32.2422 2.2368 32.1177 2.43507 31.895 2.74772L29.5005 6.23777C30.3891 6.21616 31.3287 6.35215 32.1364 6.81605C32.2856 6.89728 32.3806 7.054 32.3853 7.22657V8.35518C32.3853 8.51024 32.2198 8.68944 32.0443 8.59666C30.5115 7.79208 28.692 7.7954 27.1619 8.60556C27.0014 8.69326 26.8334 8.51659 26.8334 8.36154V7.28758C26.8187 7.03442 26.8785 6.78256 27.0051 6.5644L29.7792 2.49734H27.3598C27.2894 2.50013 27.2208 2.4733 27.1703 2.4231C27.1197 2.3729 27.0915 2.30373 27.0922 2.23171ZM51.5166 1.85297C51.8698 1.5349 52.2734 1.28047 52.7101 1.10056C53.1227 0.932622 53.5628 0.846358 54.007 0.846371C54.4484 0.837979 54.8864 0.928203 55.2901 1.11073C55.6706 1.28887 56.0038 1.55729 56.2621 1.89364C56.5433 2.26625 56.7513 2.69094 56.8744 3.14426C57.0237 3.68153 57.0958 4.23808 57.0885 4.7965C57.0953 5.36681 57.0181 5.93492 56.8595 6.48179C56.7267 6.94585 56.5093 7.38009 56.2185 7.76165C55.9486 8.10855 55.6058 8.38913 55.2154 8.58268C54.8053 8.77711 54.357 8.87319 53.9049 8.86357C53.06 8.87784 52.2421 8.55923 51.6212 7.9739V11.5021C51.633 11.5851 51.6058 11.6689 51.5477 11.7283C51.4896 11.7876 51.4075 11.8154 51.3262 11.8033H50.455C50.3737 11.8154 50.2916 11.7876 50.2335 11.7283C50.1754 11.6689 50.1482 11.5851 50.1601 11.5021V1.37128C50.1487 1.28838 50.1761 1.20486 50.2341 1.14567C50.2921 1.08649 50.3738 1.05849 50.455 1.07006H51.1034C51.188 1.06198 51.2722 1.08959 51.3364 1.14648C51.4006 1.20337 51.4391 1.28459 51.4432 1.37128L51.5166 1.85297ZM53.595 2.04869C52.8805 2.05446 52.1872 2.2976 51.6199 2.74136V6.93552C52.2488 7.41849 52.8972 7.65954 53.5652 7.6587C54.9209 7.6587 55.5988 6.72666 55.5988 4.86259C55.5988 2.99852 54.9308 2.06013 53.595 2.04742V2.04869ZM58.9292 2.41981L59.0399 2.38168C59.7409 2.16119 60.4695 2.0456 61.203 2.03853C61.7929 2.03937 62.2057 2.14995 62.4413 2.37025C62.6769 2.59055 62.7948 2.97183 62.7948 3.51411V4.50291C62.1878 4.34388 61.5645 4.25856 60.9379 4.24872C60.0733 4.24787 59.3855 4.46605 58.8744 4.90326C58.3633 5.34047 58.1078 5.92511 58.1078 6.65718C58.1094 7.33926 58.3169 7.88365 58.73 8.29036C59.1432 8.69707 59.7033 8.90042 60.4102 8.90042C60.8473 8.89856 61.2801 8.81232 61.6859 8.64623C62.1137 8.47564 62.5098 8.23148 62.857 7.92433L62.9317 8.42127C62.9354 8.50381 62.9721 8.58117 63.0333 8.63524C63.0945 8.68931 63.1747 8.71534 63.2552 8.70723H63.89C63.9711 8.7188 64.0529 8.6908 64.1109 8.63162C64.1688 8.57244 64.1963 8.48891 64.1849 8.40602V3.26373C64.1841 2.44015 63.9626 1.83306 63.5203 1.44245C63.0781 1.05184 62.3903 0.856537 61.4569 0.856537C60.9924 0.856537 60.5288 0.899114 60.0717 0.983633C59.6727 1.04873 59.2823 1.16002 58.908 1.31535C58.8175 1.34664 58.7364 1.40138 58.6728 1.47422C58.6244 1.56373 58.6036 1.66604 58.6131 1.76781V2.17071C58.6131 2.35245 58.6803 2.44269 58.8047 2.44269C58.8472 2.44204 58.8892 2.43431 58.9292 2.41981ZM61.7817 7.57863C61.4563 7.7028 61.1123 7.76858 60.7649 7.77309C60.3816 7.77393 60.0866 7.67141 59.88 7.46551C59.6734 7.25962 59.5701 6.96602 59.5701 6.58474C59.5693 5.71117 60.1248 5.27438 61.2366 5.27438C61.5 5.27494 61.7632 5.29277 62.0244 5.32776C62.2847 5.36126 62.5431 5.40878 62.7985 5.47011V7.0067C62.4897 7.24862 62.1469 7.44144 61.7817 7.57863ZM68.0592 11.5313C68.4077 11.2297 68.7151 10.7327 68.9814 10.0405L72.2247 1.61148C72.2783 1.49731 72.3132 1.37495 72.328 1.24926C72.328 1.12979 72.2596 1.06879 72.1214 1.06879H71.2963C71.183 1.05769 71.0691 1.08397 70.9715 1.14377C70.8882 1.2387 70.8281 1.35236 70.796 1.47549L68.8047 7.31554L66.74 1.47549C66.7079 1.35236 66.6478 1.2387 66.5645 1.14377C66.4669 1.08397 66.353 1.05769 66.2397 1.06879H65.3548C65.2179 1.06879 65.1495 1.12979 65.1495 1.24926C65.1636 1.37494 65.1981 1.49734 65.2515 1.61148L68.0916 8.78095L67.8116 9.54352C67.6448 10.0256 67.4581 10.3569 67.2515 10.5374C67.0027 10.7321 66.6932 10.8283 66.3803 10.8081C66.2473 10.811 66.1144 10.8007 65.9833 10.7776C65.9104 10.7616 65.8363 10.7519 65.7618 10.7484C65.6137 10.7484 65.5403 10.8437 65.5403 11.0344V11.4258C65.532 11.5337 65.5578 11.6415 65.6137 11.7334C65.6749 11.8064 65.758 11.8569 65.8501 11.877C66.1242 11.9509 66.4068 11.9863 66.6902 11.9825C67.2544 11.9833 67.7107 11.8329 68.0592 11.5313Z" fill="#8B9BB6"/>
<path fill-rule="evenodd" clip-rule="evenodd" d="M29.4034 13.5091C29.7233 12.697 30.4352 10.877 30.0966 10.436H30.0991C29.7621 9.99399 27.8703 10.2259 27.0194 10.3303L27.0176 10.3305C26.7588 10.3622 26.7189 10.1322 26.9517 9.96571C28.4625 8.88158 30.938 9.1917 31.2255 9.55773C31.5129 9.92377 31.147 12.4581 29.732 13.668C29.5142 13.8536 29.3064 13.7544 29.4034 13.5091ZM19.2367 14.7623C22.5273 14.7623 26.3592 13.7011 28.9989 11.712V11.7158C29.4358 11.3803 29.0612 10.8872 28.6156 11.0803C25.7343 12.3215 22.6413 12.9693 19.5142 12.9868C15.1757 12.9868 10.9791 11.7717 7.58391 9.75473C7.28646 9.57807 7.06493 9.88945 7.31384 10.117C10.5824 13.1286 14.8344 14.7852 19.2367 14.7623Z" fill="#8B9BB6"/>
</svg>
