<svg width="50" height="61" viewBox="0 0 50 61" fill="none" xmlns="http://www.w3.org/2000/svg">
<path d="M49.528 13.9827C49.5411 13.9631 49.5491 13.9421 49.5609 13.9225C49.6189 13.832 49.6695 13.7369 49.7122 13.6383C49.728 13.6016 49.7346 13.5623 49.7477 13.5244C49.7807 13.4391 49.8075 13.3515 49.828 13.2624C49.8814 13.0006 49.8814 12.7307 49.828 12.4688C49.8075 12.3796 49.7802 12.292 49.7464 12.2069C49.7333 12.1702 49.7267 12.1309 49.7122 12.0956C49.6699 11.9982 49.6198 11.9045 49.5622 11.8153C49.549 11.7944 49.5411 11.7721 49.528 11.7525C49.4537 11.6426 49.3691 11.5399 49.2753 11.446L39.1198 1.33578C38.7417 0.95927 38.2288 0.747681 37.6939 0.747559C37.1591 0.747436 36.6461 0.958789 36.2678 1.33512C35.8895 1.71146 35.6769 2.22194 35.6768 2.75428C35.6767 3.28662 35.889 3.79721 36.2671 4.17371L42.9778 10.8527H12.306C9.07851 10.8562 5.98422 12.1337 3.70195 14.405C1.41967 16.6762 0.135789 19.7558 0.131958 22.968V28.0218C0.131958 28.5541 0.344402 29.0646 0.722569 29.441C1.10074 29.8173 1.61365 30.0288 2.14846 30.0288C2.68327 30.0288 3.19616 29.8173 3.57433 29.441C3.9525 29.0646 4.16496 28.5541 4.16496 28.0218V22.9719C4.1674 20.8237 5.0259 18.7642 6.5521 17.2452C8.07831 15.7262 10.1476 14.8718 12.306 14.8693H42.9831L36.2724 21.5484C35.8943 21.9249 35.6819 22.4355 35.682 22.9678C35.6822 23.5001 35.8947 24.0106 36.273 24.387C36.6513 24.7633 37.1643 24.9746 37.6992 24.9745C38.2341 24.9744 38.747 24.7628 39.1251 24.3863L49.2793 14.2826C49.3714 14.1906 49.4547 14.0902 49.528 13.9827Z" fill="#293241"/>
<path d="M47.8512 31.0732C47.5865 31.0732 47.3244 31.1251 47.0798 31.226C46.8352 31.3268 46.613 31.4746 46.4258 31.6609C46.2386 31.8472 46.0901 32.0684 45.9888 32.3118C45.8875 32.5552 45.8354 32.8161 45.8354 33.0796V38.1347C45.8329 40.2829 44.9744 42.3424 43.4482 43.8614C41.922 45.3804 39.8528 46.2348 37.6944 46.2373H7.0133L13.724 39.5582C13.9112 39.3719 14.0597 39.1507 14.1611 38.9072C14.2624 38.6637 14.3145 38.4028 14.3145 38.1393C14.3145 37.8757 14.2624 37.6148 14.1611 37.3713C14.0597 37.1279 13.9112 36.9066 13.724 36.7203C13.5368 36.534 13.3145 36.3861 13.0699 36.2853C12.8253 36.1844 12.5631 36.1325 12.2983 36.1325C12.0335 36.1325 11.7714 36.1844 11.5267 36.2853C11.2821 36.3861 11.0598 36.534 10.8726 36.7203L0.714449 46.8292C0.678922 46.8646 0.651301 46.9078 0.619721 46.9458C0.564738 47.0039 0.513748 47.0655 0.467089 47.1304C0.43551 47.1776 0.414441 47.23 0.385493 47.2784C0.34637 47.3417 0.311212 47.4073 0.280225 47.4749C0.258545 47.5323 0.240105 47.5909 0.22497 47.6503C0.200458 47.7159 0.179813 47.7828 0.16313 47.8507C0.137159 47.9801 0.12394 48.1117 0.123657 48.2436C0.123657 48.2698 0.123653 48.2947 0.131548 48.3196C0.133777 48.4268 0.14477 48.5337 0.164435 48.6391C0.188367 48.7513 0.221827 48.8613 0.264443 48.9678C0.264443 48.9822 0.27234 48.9979 0.27892 49.0123C0.38253 49.2579 0.534164 49.4805 0.72499 49.6672L10.8726 59.7643C11.2507 60.1406 11.7636 60.352 12.2983 60.352C12.5631 60.352 12.8253 60.3001 13.0699 60.1993C13.3145 60.0984 13.5368 59.9506 13.724 59.7643C13.9112 59.5779 14.0597 59.3567 14.1611 59.1133C14.2624 58.8698 14.3145 58.6088 14.3145 58.3453C14.3145 58.0818 14.2624 57.8208 14.1611 57.5774C14.0597 57.3339 13.9112 57.1127 13.724 56.9263L7.0133 50.2473H37.6891C40.9168 50.2438 44.0113 48.9662 46.2936 46.6946C48.5759 44.4231 49.8596 41.3432 49.8631 38.1308V33.0756C49.8621 32.5449 49.6498 32.0362 49.2727 31.6609C48.8956 31.2856 48.3845 31.0743 47.8512 31.0732Z" fill="#EE6B51" stroke="#EE6B51" stroke-width="0.2"/>
</svg>
