<svg width="89" height="53" viewBox="0 0 89 53" fill="none" xmlns="http://www.w3.org/2000/svg">
<path d="M62.7035 52.0985C57.5808 52.0982 52.5731 50.596 48.3137 47.7817C44.0544 44.9674 40.7347 40.9675 38.7744 36.2878C36.8142 31.6081 36.3013 26.4586 37.3008 21.4907C38.3003 16.5228 40.7671 11.9595 44.3895 8.37777C48.0119 4.79608 52.627 2.3569 57.6513 1.36865C62.6756 0.380401 67.8835 0.887472 72.6164 2.82575C77.3493 4.76402 81.3946 8.04645 84.2408 12.258C87.0871 16.4695 88.6064 21.4209 88.6066 26.4862C88.5993 33.2768 85.8679 39.7872 81.0117 44.5889C76.1555 49.3905 69.5712 52.0913 62.7035 52.0985ZM62.7035 5.26556C58.4588 5.26556 54.3095 6.51013 50.7801 8.84188C47.2508 11.1736 44.5 14.4878 42.8757 18.3654C41.2513 22.243 40.8262 26.5097 41.6543 30.6261C42.4824 34.7425 44.5265 38.5237 47.5279 41.4914C50.5294 44.4592 54.3535 46.4803 58.5166 47.2991C62.6797 48.1179 66.9949 47.6976 70.9165 46.0915C74.8381 44.4854 78.1899 41.7654 80.5481 38.2757C82.9064 34.786 84.1651 30.6832 84.1651 26.4862C84.1578 20.8606 81.8943 15.4675 77.8709 11.4898C73.8476 7.51215 68.393 5.27467 62.7035 5.26816V5.26556Z" fill="#293241" stroke="#1E1E1E" stroke-width="0.6"/>
<path d="M71.8869 33.2194C71.5431 33.2192 71.2041 33.1397 70.8968 32.9873L61.7174 28.4491C61.3481 28.2671 61.0375 27.9868 60.8204 27.6398C60.6033 27.2927 60.4885 26.8928 60.4886 26.4847V12.8637C60.4886 12.2814 60.7225 11.7231 61.1389 11.3114C61.5552 10.8997 62.1199 10.6685 62.7088 10.6685C63.2976 10.6685 63.8623 10.8997 64.2786 11.3114C64.695 11.7231 64.9289 12.2814 64.9289 12.8637V25.1298L72.8861 29.0598C73.3341 29.2808 73.6934 29.6449 73.9057 30.0931C74.118 30.5413 74.171 31.0473 74.0558 31.529C73.9407 32.0107 73.6644 32.4398 73.2716 32.7467C72.8788 33.0535 72.3927 33.2201 71.8921 33.2194H71.8869Z" fill="#293241"/>
<path d="M28.6726 18.534H2.41156C1.77179 18.534 1.15824 18.2827 0.705858 17.8354C0.253478 17.3881 -0.000640869 16.7814 -0.000640869 16.1488C-0.000640869 15.5162 0.253478 14.9096 0.705858 14.4623C1.15824 14.015 1.77179 13.7637 2.41156 13.7637H28.6726C29.3124 13.7637 29.926 14.015 30.3783 14.4623C30.8307 14.9096 31.0849 15.5162 31.0849 16.1488C31.0849 16.7814 30.8307 17.3881 30.3783 17.8354C29.926 18.2827 29.3124 18.534 28.6726 18.534Z" fill="#EE6B51"/>
<path d="M28.4091 40.7957H16.8823C16.2426 40.7957 15.629 40.5444 15.1766 40.0971C14.7242 39.6498 14.4701 39.0431 14.4701 38.4105C14.4701 37.778 14.7242 37.1713 15.1766 36.724C15.629 36.2767 16.2426 36.0254 16.8823 36.0254H28.4091C29.0488 36.0254 29.6624 36.2767 30.1148 36.724C30.5671 37.1713 30.8213 37.778 30.8213 38.4105C30.8213 39.0431 30.5671 39.6498 30.1148 40.0971C29.6624 40.5444 29.0488 40.7957 28.4091 40.7957Z" fill="#EE6B51"/>
<path d="M28.0156 29.6679H8.84372C8.20413 29.6679 7.59076 29.4167 7.1385 28.9695C6.68624 28.5223 6.43216 27.9158 6.43216 27.2834C6.43216 26.651 6.68624 26.0445 7.1385 25.5973C7.59076 25.1502 8.20413 24.8989 8.84372 24.8989H28.0156C28.6552 24.8989 29.2686 25.1502 29.7209 25.5973C30.1732 26.0445 30.4272 26.651 30.4272 27.2834C30.4272 27.9158 30.1732 28.5223 29.7209 28.9695C29.2686 29.4167 28.6552 29.6679 28.0156 29.6679Z" fill="#EE6B51"/>
</svg>
