<svg width="47" height="16" viewBox="0 0 47 16" fill="none" xmlns="http://www.w3.org/2000/svg">
<path d="M27.198 15.564C25.8159 15.5641 24.446 15.3054 23.1591 14.8013L23.8271 11.6944C24.962 12.3056 26.2306 12.6258 27.5196 12.6265H27.6174C28.7235 12.611 29.8388 12.1605 29.8388 11.2129C29.8544 10.6039 29.3324 10.1255 27.9126 9.42646C26.5145 8.74451 24.666 7.59964 24.666 5.52738C24.666 2.73123 27.2213 0.773926 30.8796 0.773926C32.0682 0.776977 33.2467 0.992676 34.3593 1.41083L33.7084 4.51766C32.7757 4.07723 31.7573 3.84809 30.7258 3.84658C30.4975 3.84658 30.2676 3.85746 30.0408 3.88076C28.9674 4.02212 28.4874 4.58446 28.4874 5.07689C28.4874 5.67962 29.2641 6.08195 30.2318 6.59147C31.7853 7.4008 33.7022 8.40897 33.6913 10.7779L33.769 10.6537C33.7534 13.6362 31.2105 15.5625 27.2912 15.5625L27.198 15.564ZM37.491 15.4397H33.5764L39.1531 2.12695C39.2783 1.81684 39.4928 1.55089 39.7694 1.36283C40.0459 1.17477 40.3721 1.07307 40.7065 1.07063H43.8134L46.8254 15.4382H43.3784L42.9279 13.2945H38.2521L37.491 15.4382V15.4397ZM41.1881 4.95417L39.2308 10.3445H42.3221L41.1881 4.95417ZM20.4966 15.3931H16.7684L19.8752 1.02403H23.6034L20.4966 15.3916V15.3931ZM12.3411 15.3465H8.28673L5.3197 3.86678C5.29393 3.59805 5.19857 3.34068 5.04303 3.12004C4.88749 2.89939 4.67713 2.72309 4.4327 2.60851C3.26682 2.0526 2.03566 1.64551 0.768188 1.39685L0.861393 0.977423H7.1838C7.59838 0.975162 8.00008 1.12128 8.31632 1.38937C8.63256 1.65746 8.84246 2.02983 8.90809 2.43919L10.4615 10.75L14.3295 0.977423H18.3684L12.3411 15.345V15.3465Z" fill="#8B9BB6"/>
</svg>
