<svg width="53" height="21" viewBox="0 0 53 21" fill="none" xmlns="http://www.w3.org/2000/svg">
<path fill-rule="evenodd" clip-rule="evenodd" d="M12.5632 5.29203C11.6757 4.4708 10.4907 4.02133 9.26439 4.04077C7.0215 4.04077 5.11778 5.50737 4.43691 7.48375V7.48418C4.077 8.51989 4.077 9.64149 4.43691 10.6772L4.43687 10.6772C5.11772 12.6537 7.02146 14.1203 9.26439 14.1203C10.4265 14.1203 11.4202 13.8307 12.1917 13.3232V13.322C13.0967 12.7397 13.7172 11.824 13.9092 10.7871H9.26439V7.57435H17.3741C17.4733 8.13459 17.5229 8.70206 17.5222 9.27051C17.5222 11.8089 16.587 13.9558 14.9638 15.4075H14.9623L14.9638 15.4087C13.539 16.6831 11.585 17.4223 9.26439 17.4223C6.01362 17.4221 3.04079 15.6438 1.5811 12.8262V12.8262C0.360301 10.4695 0.360336 7.69164 1.58121 5.33502H1.58127L1.5811 5.3349C3.04079 2.51729 6.01362 0.738972 9.26439 0.738829C11.3994 0.714639 13.4613 1.49315 15.0176 2.91116L12.5632 5.29203ZM25.2927 16.418V10.5382V10.537H28.4696C29.7794 10.5378 30.8802 10.1257 31.772 9.30084C32.6733 8.51795 33.1771 7.39232 33.1515 6.21903C33.1694 5.05227 32.6664 3.93497 31.772 3.1546C30.8881 2.32518 29.6992 1.87264 28.4696 1.89755H23.3697V16.418H25.2927ZM25.2926 8.75379V3.68502V3.68386H28.5174C29.2361 3.66427 29.9289 3.94483 30.42 4.45431C30.914 4.92026 31.1928 5.56025 31.1928 6.22867C31.1928 6.89709 30.914 7.53709 30.42 8.00303C29.9229 8.5018 29.2322 8.77434 28.5174 8.75379H25.2926ZM40.9481 7.2637C40.1256 6.52685 39.0037 6.15842 37.5824 6.15842C35.7566 6.15842 34.3779 6.80722 33.4463 8.10483L35.1399 9.13943C35.7658 8.26046 36.6158 7.82098 37.6899 7.82098C38.3747 7.8132 39.0374 8.05603 39.5459 8.50106C40.0529 8.90767 40.3446 9.5139 40.3402 10.152V10.5784C39.6012 10.1729 38.6609 9.97013 37.5191 9.97013C36.1814 9.97168 35.1121 10.276 34.3111 10.8831C33.51 11.4902 33.1095 12.3077 33.1095 13.3358C33.0921 14.2719 33.5107 15.1657 34.2489 15.7688C35.0086 16.4176 35.9525 16.742 37.0808 16.742C38.4025 16.742 39.4615 16.1743 40.2577 15.0389H40.3413V16.4176H42.1807V10.2945C42.1814 9.01083 41.7706 8.00055 40.9481 7.2637ZM35.7325 14.5928C35.3296 14.3112 35.092 13.858 35.0947 13.3763C35.0947 12.8353 35.3562 12.3846 35.8829 12.0138C36.4045 11.6485 37.0558 11.4658 37.8369 11.4658C38.9094 11.4658 39.7455 11.6976 40.345 12.161C40.345 12.9442 40.0266 13.6266 39.3896 14.2082C38.8158 14.7648 38.038 15.0781 37.2266 15.0794C36.6856 15.0892 36.1577 14.9173 35.7325 14.5928ZM46.3181 20.7974L52.7389 6.48322H50.6452L47.6772 13.62H47.6354L44.5839 6.48322H42.4937L46.7158 15.7889L44.333 20.7974H46.3181Z" fill="#8B9BB6"/>
</svg>
