<?xml version="1.0" standalone="no"?>
<!DOCTYPE svg PUBLIC "-//W3C//DTD SVG 1.1//EN" "http://www.w3.org/Graphics/SVG/1.1/DTD/svg11.dtd" >
<svg xmlns="http://www.w3.org/2000/svg">
<metadata>Generated by IcoMoon</metadata>
<defs>
<font id="icomoon" horiz-adv-x="1024">
<font-face units-per-em="1024" ascent="960" descent="-64" />
<missing-glyph horiz-adv-x="1024" />
<glyph unicode="&#x20;" horiz-adv-x="512" d="" />
<glyph unicode="&#xe900;" glyph-name="arrow-down" d="M512 181.76c-12.288 0-22.528 4.096-30.72 12.288l-442.368 444.416c-16.384 16.384-16.384 45.056 0 63.488 16.384 16.384 45.056 16.384 63.488 0l409.6-411.648 411.648 411.648c16.384 16.384 45.056 16.384 63.488 0 16.384-16.384 16.384-45.056 0-63.488l-444.416-442.368c-8.192-8.192-18.432-14.336-30.72-14.336z" />
<glyph unicode="&#xe901;" glyph-name="arrow-right" d="M307.2-31.232c-18.432 0-34.816 6.144-49.152 20.48-26.624 26.624-26.624 69.632 0 96.256l362.496 362.496-362.496 362.496c-26.624 26.624-26.624 69.632 0 96.256s69.632 26.624 96.256 0l411.648-411.648c26.624-26.624 26.624-69.632 0-96.256l-411.648-409.6c-12.288-14.336-30.72-20.48-47.104-20.48z" />
<glyph unicode="&#xe902;" glyph-name="bag" d="M702.464-20.992h-382.976c-96.256 0-163.84 22.528-204.8 71.68-43.008 49.152-55.296 118.784-40.96 215.040l34.816 276.48c22.528 122.88 104.448 165.888 167.936 165.888h466.944c63.488 0 141.312-43.008 167.936-163.84l36.864-280.576c12.288-88.064-2.048-159.744-47.104-208.896-40.96-49.152-110.592-75.776-198.656-75.776zM278.528 652.8c-45.056 0-98.304-30.72-114.688-118.784l-34.816-274.432c-12.288-79.872-2.048-137.216 28.672-172.032s83.968-51.2 161.792-51.2h382.976c49.152 0 116.736 10.24 159.744 57.344 32.768 36.864 45.056 94.208 34.816 165.888l-36.864 276.48c-18.432 86.016-71.68 116.736-114.688 116.736 0 0-466.944 0-466.944 0zM710.656 663.040c-14.336 0-26.624 12.288-26.624 26.624 0 94.208-75.776 169.984-169.984 169.984-45.056-2.048-90.112-18.432-120.832-49.152-32.768-32.768-51.2-75.776-51.2-120.832 0-14.336-12.288-26.624-26.624-26.624v0c-14.336 0-26.624 12.288-26.624 26.624 0 59.392 24.576 118.784 65.536 159.744 43.008 43.008 100.352 67.584 159.744 65.536 124.928 0 225.28-100.352 225.28-225.28 0-14.336-14.336-26.624-28.672-26.624z" />
<glyph unicode="&#xe903;" glyph-name="call" d="M755.712-25.088c-114.688 0-264.192 92.16-446.464 272.384-180.224 180.224-272.384 329.728-270.336 446.464 0 77.824 40.96 116.736 55.296 131.072 0 2.048 4.096 4.096 4.096 4.096 65.536 65.536 112.64 94.208 155.648 92.16 53.248 0 90.112-38.912 137.216-88.064 12.288-12.288 24.576-24.576 36.864-38.912 67.584-67.584 49.152-126.976 32.768-167.936-16.384-47.104-30.72-88.064 55.296-172.032 86.016-86.016 124.928-71.68 172.032-55.296 43.008 14.336 100.352 34.816 167.936-32.768 14.336-14.336 26.624-26.624 38.912-36.864 49.152-47.104 88.064-83.968 88.064-137.216 0-45.056-26.624-90.112-92.16-155.648l-30.72 22.528 26.624-26.624c-12.288-16.384-53.248-57.344-131.072-57.344 0 0 0 0 0 0zM151.552 775.68c0 0-2.048-2.048-6.144-6.144-12.288-12.288-32.768-32.768-32.768-77.824 0-65.536 43.008-186.368 249.856-393.216s327.68-249.856 393.216-249.856c0 0 0 0 0 0 45.056 0 67.584 22.528 77.824 32.768 4.096 4.096 6.144 6.144 8.192 8.192 45.056 45.056 67.584 77.824 67.584 100.352 0 20.48-28.672 47.104-65.536 83.968-12.288 12.288-24.576 24.576-38.912 38.912-34.816 34.816-53.248 28.672-90.112 16.384-55.296-20.48-131.072-47.104-249.856 71.68s-92.16 194.56-71.68 249.856c14.336 38.912 20.48 55.296-16.384 90.112-14.336 14.336-26.624 28.672-38.912 40.96-36.864 36.864-61.44 65.536-81.92 65.536 0 0 0 0 0 0-22.528 0-57.344-24.576-104.448-71.68 0 0 0 0 0 0z" />
<glyph unicode="&#xe904;" glyph-name="calling" d="M950.272 531.968c-14.336 0-28.672 12.288-30.72 26.624-16.384 157.696-137.216 280.576-290.816 296.96-16.384 2.048-28.672 16.384-26.624 32.768 2.048 18.432 16.384 30.72 32.768 28.672 182.272-20.48 323.584-165.888 344.064-350.208 2.048-16.384-10.24-30.72-26.624-32.768 0-2.048-2.048-2.048-2.048-2.048zM790.528 531.968c-14.336 0-26.624 10.24-28.672 24.576-14.336 69.632-65.536 124.928-135.168 137.216-16.384 4.096-26.624 18.432-24.576 34.816 4.096 16.384 18.432 26.624 34.816 24.576 92.16-18.432 163.84-90.112 182.272-186.368 4.096-16.384-8.192-32.768-24.576-34.816-2.048 0-4.096 0-4.096 0zM743.424-20.992c-110.592 0-258.048 92.16-434.176 270.336-319.488 327.68-292.864 491.52-212.992 571.392l2.048 2.048c0 0 2.048 2.048 2.048 2.048 63.488 65.536 106.496 92.16 147.456 92.16 0 0 0 0 2.048 0 49.152 0 81.92-36.864 129.024-86.016 10.24-12.288 22.528-24.576 36.864-38.912 63.488-65.536 45.056-118.784 30.72-161.792-16.384-47.104-30.72-92.16 55.296-182.272v0c86.016-88.064 129.024-73.728 176.128-57.344 43.008 14.336 94.208 34.816 159.744-32.768 14.336-14.336 26.624-26.624 36.864-36.864 49.152-47.104 83.968-81.92 86.016-131.072 0-43.008-24.576-86.016-88.064-151.552 0 0-2.048-2.048-2.048-2.048l-2.048-2.048c-14.336-14.336-51.2-55.296-124.928-55.296 0 0 0 0 0 0zM145.408 783.872c-2.048-2.048-4.096-4.096-6.144-6.144-114.688-114.688 83.968-354.304 212.992-485.376 204.8-208.896 325.632-253.952 391.168-253.952 0 0 0 0 0 0 47.104 0 69.632 24.576 81.92 34.816 2.048 2.048 4.096 4.096 6.144 6.144 49.152 49.152 71.68 83.968 71.68 108.544s-26.624 51.2-67.584 90.112c-12.288 12.288-24.576 24.576-38.912 38.912-36.864 38.912-57.344 30.72-96.256 16.384-53.248-18.432-124.928-45.056-239.616 71.68-112.64 114.688-88.064 190.464-69.632 243.712 14.336 38.912 20.48 61.44-16.384 100.352-14.336 14.336-26.624 28.672-38.912 40.96-36.864 38.912-63.488 67.584-86.016 67.584 0 0 0 0 0 0-22.528-2.048-57.344-24.576-104.448-73.728z" />
<glyph unicode="&#xe905;" glyph-name="close" d="M75.776-25.088c-10.24 0-18.432 4.096-26.624 10.24-14.336 14.336-14.336 36.864 0 51.2l874.496 874.496c14.336 14.336 36.864 14.336 51.2 0s14.336-36.864 0-51.2l-874.496-874.496c-6.144-8.192-16.384-10.24-24.576-10.24zM948.224-25.088c-10.24 0-18.432 4.096-26.624 10.24l-872.448 874.496c-14.336 14.336-14.336 36.864 0 51.2s36.864 14.336 51.2 0l874.496-874.496c14.336-14.336 14.336-36.864 0-51.2-6.144-8.192-16.384-10.24-26.624-10.24z" />
<glyph unicode="&#xe906;" glyph-name="facebook" d="M790.528 558.592h-186.368v147.456c0 40.96 32.768 36.864 73.728 36.864h73.728v184.32h-149.504c-59.392 0-116.736-22.528-157.696-65.536-40.96-40.96-65.536-98.304-65.536-155.648v-147.456h-149.504v-184.32h149.504v-405.504h223.232v405.504h114.688l73.728 184.32z" />
<glyph unicode="&#xe907;" glyph-name="linkedin" d="M251.904 591.36h-194.56v-567.296h194.56v567.296zM219.136 855.552c-18.432 10.24-40.96 16.384-61.44 16.384-14.336 0-28.672-2.048-43.008-8.192-14.336-4.096-26.624-12.288-36.864-20.48-10.24-10.24-18.432-20.48-24.576-32.768s-8.192-26.624-8.192-40.96c0-20.48 6.144-38.912 18.432-57.344 12.288-16.384 30.72-28.672 51.2-36.864s43.008-10.24 65.536-6.144c22.528 4.096 40.96 14.336 57.344 28.672s26.624 32.768 30.72 51.2c4.096 20.48 2.048 40.96-6.144 59.392-10.24 20.48-24.576 36.864-43.008 47.104zM563.2 591.36h-186.368v-567.296h194.56v280.576c0 73.728 16.384 145.408 116.736 145.408s100.352-83.968 100.352-151.552v-274.432h194.56v311.296c0 153.6-38.912 270.336-233.472 270.336-36.864 2.048-73.728-6.144-106.496-22.528s-59.392-38.912-77.824-69.632v77.824z" />
<glyph unicode="&#xe908;" glyph-name="location" d="M512 368.128c-83.968 0-153.6 67.584-153.6 153.6 0 83.968 67.584 153.6 153.6 153.6 83.968 0 153.6-67.584 153.6-153.6s-69.632-153.6-153.6-153.6zM512 607.744c-49.152 0-88.064-38.912-88.064-88.064s38.912-88.064 88.064-88.064c49.152 0 88.064 38.912 88.064 88.064s-38.912 88.064-88.064 88.064zM512-18.944c-86.016 0-393.216 266.24-393.216 534.528 0 221.184 176.128 397.312 393.216 397.312s393.216-178.176 393.216-397.312c0-268.288-307.2-534.528-393.216-534.528zM512 46.592v0 0zM512 849.408c-182.272 0-329.728-149.504-329.728-331.776 0-233.472 276.48-462.848 329.728-471.040 51.2 8.192 329.728 237.568 329.728 471.040 0 182.272-147.456 331.776-329.728 331.776z" />
<glyph unicode="&#xe909;" glyph-name="message" d="M514.048 370.176c-30.72 0-59.392 10.24-83.968 30.72l-196.608 157.696c-16.384 12.288-18.432 34.816-6.144 51.2s34.816 18.432 51.2 6.144l196.608-157.696c24.576-18.432 57.344-18.432 79.872 0l194.56 157.696c14.336 12.288 36.864 10.24 51.2-6.144 12.288-14.336 10.24-38.912-6.144-51.2l-194.56-157.696c-26.624-20.48-57.344-30.72-86.016-30.72zM727.040 17.92c0 0 0 0 0 0h-430.080c0 0 0 0 0 0-67.584 0-129.024 24.576-176.128 71.68-53.248 53.248-81.92 126.976-81.92 206.848v301.056c0 159.744 110.592 280.576 258.048 280.576h430.080c147.456 0 258.048-120.832 258.048-280.576v-301.056c0-81.92-28.672-155.648-81.92-206.848-45.056-47.104-106.496-71.68-176.128-71.68zM727.040 89.6c0 0 0 0 0 0 49.152 0 94.208 18.432 126.976 51.2 38.912 38.912 59.392 94.208 59.392 157.696v299.008c0 120.832-77.824 208.896-186.368 208.896h-430.080c-108.544 0-186.368-88.064-186.368-208.896v-301.056c0-61.44 20.48-118.784 59.392-157.696 32.768-32.768 77.824-51.2 126.976-51.2 0 0 0 0 0 0h430.080z" />
<glyph unicode="&#xe90a;" glyph-name="minus" d="M944.128 404.992h-864.256c-24.576 0-43.008 18.432-43.008 43.008s18.432 43.008 43.008 43.008h862.208c24.576 0 43.008-18.432 43.008-43.008s-18.432-43.008-40.96-43.008z" />
<glyph unicode="&#xe90b;" glyph-name="plus" d="M944.128 404.992h-864.256c-24.576 0-43.008 18.432-43.008 43.008s18.432 43.008 43.008 43.008h862.208c24.576 0 43.008-18.432 43.008-43.008s-18.432-43.008-40.96-43.008zM555.008 880.128v-862.208c0-24.576-18.432-43.008-43.008-43.008s-43.008 18.432-43.008 43.008v862.208c0 24.576 18.432 43.008 43.008 43.008s43.008-20.48 43.008-43.008z" />
<glyph unicode="&#xe90c;" glyph-name="return" d="M956.416-27.136c-14.336 0-28.672 10.24-28.672 26.624l-20.48 184.32c-38.912-59.392-92.16-108.544-155.648-145.408-90.112-53.248-196.608-73.728-301.056-61.44-104.448 14.336-200.704 61.44-274.432 135.168-73.728 75.776-120.832 172.032-135.168 276.48-2.048 16.384 10.24 30.72 26.624 32.768s30.72-10.24 32.768-26.624c12.288-90.112 53.248-176.128 118.784-241.664 63.488-65.536 149.504-106.496 239.616-118.784s184.32 6.144 262.144 53.248c65.536 38.912 120.832 94.208 155.648 161.792h-198.656c-16.384 0-28.672 12.288-28.672 28.672s12.288 28.672 28.672 28.672h245.76c0 0 0 0 2.048 0h30.72c16.384 0 28.672-12.288 28.672-28.672v-278.528c2.048-12.288-10.24-24.576-28.672-26.624 2.048 0 0 0 0 0zM952.32 474.624c-14.336 0-26.624 10.24-28.672 26.624-12.288 90.112-53.248 176.128-116.736 241.664-65.536 63.488-151.552 104.448-241.664 116.736s-184.32-6.144-262.144-53.248c-65.536-38.912-120.832-94.208-155.648-161.792h198.656c16.384 0 28.672-12.288 28.672-28.672s-12.288-28.672-28.672-28.672h-245.76c0 0 0 0-2.048 0h-30.72c-16.384 0-28.672 12.288-28.672 28.672v276.48c0 16.384 12.288 28.672 28.672 28.672s28.672-10.24 30.72-26.624l20.48-184.32c38.912 59.392 92.16 108.544 155.648 145.408 90.112 53.248 196.608 73.728 301.056 61.44 104.448-14.336 200.704-61.44 274.432-135.168 71.68-73.728 118.784-169.984 133.12-274.432 2.048-16.384-10.24-30.72-26.624-32.768 0 0-2.048 0-4.096 0z" />
<glyph unicode="&#xe90d;" glyph-name="search" d="M444.416 120.32c-219.136 0-397.312 176.128-397.312 395.264s178.176 397.312 397.312 397.312c219.136 0 395.264-178.176 395.264-397.312s-176.128-395.264-395.264-395.264zM444.416 843.264c-180.224 0-327.68-147.456-327.68-327.68s147.456-327.68 327.68-327.68c180.224 0 327.68 147.456 327.68 327.68 0 182.272-147.456 327.68-327.68 327.68zM942.080-16.896c-8.192 0-16.384 4.096-24.576 10.24l-225.28 227.328c-12.288 12.288-12.288 34.816 0 47.104s34.816 12.288 47.104 0l227.328-227.328c12.288-12.288 12.288-34.816 0-47.104-6.144-6.144-16.384-10.24-24.576-10.24z" />
<glyph unicode="&#xe90e;" glyph-name="send" d="M661.504-12.8c-32.768 0-63.488 16.384-79.872 45.056l-182.272 296.96-303.104 188.416c-32.768 20.48-49.152 57.344-45.056 94.208 6.144 36.864 30.72 67.584 67.584 77.824l731.136 215.040c32.768 10.24 69.632 0 94.208-24.576s34.816-61.44 24.576-94.208l-215.040-731.136c-10.24-36.864-40.96-63.488-79.872-67.584-4.096 0-8.192 0-12.288 0zM466.944 349.696l172.032-280.576c8.192-12.288 18.432-12.288 24.576-12.288 4.096 0 16.384 4.096 20.48 18.432l217.088 731.136c4.096 12.288-4.096 22.528-6.144 24.576-4.096 4.096-12.288 10.24-24.576 6.144l-731.136-215.040c-14.336-4.096-16.384-16.384-18.432-20.48 0-4.096 0-16.384 12.288-24.576l282.624-178.176 251.904 253.952c14.336 14.336 36.864 14.336 49.152 0s14.336-36.864 0-49.152l-249.856-253.952z" />
<glyph unicode="&#xe90f;" glyph-name="shipping" d="M268.288 77.312c-34.816 0-65.536 12.288-90.112 36.864s-36.864 55.296-36.864 90.112c0 34.816 12.288 65.536 36.864 90.112s55.296 36.864 90.112 36.864c34.816 0 65.536-12.288 90.112-36.864s36.864-55.296 36.864-90.112c0-32.768-14.336-65.536-36.864-90.112-24.576-22.528-55.296-36.864-90.112-36.864zM268.288 271.872c-18.432 0-34.816-6.144-49.152-20.48-12.288-12.288-20.48-30.72-20.48-49.152s8.192-34.816 20.48-49.152c26.624-26.624 71.68-26.624 96.256 0 12.288 12.288 20.48 30.72 20.48 49.152s-6.144 34.816-20.48 49.152c-12.288 14.336-28.672 20.48-47.104 20.48zM755.712 77.312c-34.816 0-65.536 12.288-90.112 36.864s-36.864 55.296-36.864 90.112c0 34.816 12.288 65.536 36.864 90.112s55.296 36.864 90.112 36.864c34.816 0 65.536-12.288 90.112-36.864s36.864-55.296 36.864-90.112c0-32.768-14.336-65.536-36.864-90.112-24.576-22.528-57.344-36.864-90.112-36.864zM755.712 271.872c-18.432 0-34.816-6.144-49.152-20.48-12.288-12.288-20.48-30.72-20.48-49.152s8.192-34.816 20.48-49.152c26.624-26.624 71.68-26.624 96.256 0 12.288 12.288 20.48 30.72 20.48 49.152s-6.144 34.816-20.48 49.152-28.672 20.48-47.104 20.48zM755.712 77.312c-32.768 0-65.536 14.336-90.112 36.864-16.384 16.384-28.672 36.864-32.768 59.392h-22.528c-18.432 0-34.816 6.144-49.152 16.384-14.336-10.24-30.72-16.384-49.152-16.384h-120.832c-6.144-22.528-16.384-43.008-32.768-59.392-24.576-24.576-55.296-36.864-90.112-36.864s-65.536 12.288-90.112 36.864c-16.384 16.384-28.672 36.864-32.768 59.392h-22.528c-20.48 0-40.96 8.192-55.296 22.528s-22.528 34.816-22.528 55.296v489.472c0 20.48 8.192 40.96 22.528 55.296s34.816 22.528 55.296 22.528h389.12c20.48 0 40.96-8.192 55.296-22.528s22.528-34.816 22.528-55.296v-22.528c6.144 2.048 12.288 2.048 20.48 2.048h126.976c20.48 0 40.96-8.192 55.296-22.528l165.888-165.888c14.336-14.336 22.528-34.816 22.528-55.296v-223.232c0-20.48-8.192-40.96-22.528-55.296-16.384-14.336-36.864-22.528-57.344-22.528h-22.528c-6.144-22.528-16.384-43.008-32.768-59.392-24.576-24.576-57.344-38.912-90.112-38.912zM688.128 204.288c0-18.432 8.192-34.816 20.48-49.152 24.576-24.576 71.68-24.576 96.256 0 12.288 12.288 20.48 30.72 20.48 49.152s-6.144 34.816-20.48 49.152c-24.576 26.624-71.68 26.624-96.256 0-14.336-14.336-20.48-30.72-20.48-49.152zM200.704 204.288c0-18.432 8.192-34.816 20.48-49.152 26.624-26.624 71.68-26.624 96.256 0 12.288 12.288 20.48 30.72 20.48 49.152s-6.144 34.816-20.48 49.152c-26.624 26.624-71.68 26.624-96.256 0-14.336-14.336-20.48-30.72-20.48-49.152zM878.592 232.96h22.528c6.144 0 10.24 2.048 14.336 6.144s6.144 8.192 6.144 14.336v223.232c0 6.144-2.048 10.24-6.144 14.336l-165.888 165.888c-4.096 4.096-8.192 6.144-14.336 6.144h-126.976c-6.144 0-10.24-2.048-14.336-6.144s-6.144-8.192-6.144-14.336v-389.12c0-6.144 2.048-10.24 6.144-14.336s8.192-6.144 14.336-6.144h22.528c6.144 22.528 16.384 43.008 32.768 59.392 22.528 24.576 55.296 36.864 90.112 36.864s65.536-12.288 90.112-36.864c18.432-14.336 30.72-36.864 34.816-59.392zM391.168 232.96h120.832c6.144 0 10.24 2.048 14.336 6.144s6.144 8.192 6.144 14.336v487.424c0 6.144-2.048 10.24-6.144 14.336s-8.192 6.144-14.336 6.144h-389.12c-6.144 0-10.24-2.048-14.336-6.144s-6.144-10.24-6.144-14.336v-487.424c0-6.144 2.048-10.24 6.144-14.336s8.192-6.144 14.336-6.144h22.528c6.144 22.528 16.384 43.008 32.768 59.392 24.576 24.576 55.296 36.864 90.112 36.864s65.536-12.288 90.112-36.864c16.384-14.336 28.672-36.864 32.768-59.392z" />
<glyph unicode="&#xe910;" glyph-name="size-guide" d="M929.792 294.4l-391.168 212.992v16.384c0 18.432 10.24 34.816 28.672 43.008 38.912 20.48 63.488 59.392 61.44 102.4-2.048 57.344-51.2 104.448-112.64 106.496-32.768 0-63.488-10.24-86.016-30.72s-36.864-49.152-36.864-79.872c0-14.336 12.288-26.624 26.624-26.624s26.624 12.288 26.624 26.624c0 16.384 6.144 30.72 18.432 43.008s28.672 16.384 47.104 16.384c32.768-2.048 59.392-26.624 61.44-57.344 0-22.528-12.288-43.008-32.768-55.296-34.816-18.432-57.344-53.248-57.344-90.112v-16.384l-389.12-210.944c-30.72-16.384-49.152-47.104-49.152-79.872 0-53.248 43.008-94.208 98.304-94.208h737.28c55.296 0 98.304 40.96 98.304 92.16 0 34.816-18.432 65.536-49.152 81.92zM880.64 171.52h-737.28c-24.576 0-43.008 18.432-43.008 40.96 0 14.336 8.192 28.672 22.528 34.816l389.12 215.040 391.168-212.992c14.336-8.192 22.528-20.48 22.528-34.816 0-24.576-20.48-43.008-45.056-43.008z" />
<glyph unicode="&#xe911;" glyph-name="twitter" d="M978.944 751.104c-32.768-16.384-77.824-32.768-116.736-36.864 38.912 24.576 102.4 75.776 116.736 122.88-36.864-22.528-104.448-47.104-147.456-55.296-34.816 38.912-83.968 55.296-139.264 55.296-106.496 0-180.224-94.208-180.224-204.8v-81.92c-155.648 0-307.2 124.928-403.456 245.76-16.384-30.72-26.624-65.536-26.624-100.352 0-73.728 65.536-149.504 116.736-186.368-30.72 0-90.112 26.624-116.736 40.96v-2.048c0-96.256 65.536-161.792 151.552-180.224-16.384-4.096-34.816-20.48-110.592-20.48 24.576-79.872 147.456-120.832 231.424-122.88-65.536-53.248-182.272-81.92-272.384-81.92-16.384 0-24.576 0-38.912 0 83.968-57.344 202.752-81.92 311.296-81.92 354.304-2.048 546.816 280.576 546.816 544.768 0 8.192 0 36.864 0 47.104 36.864 28.672 53.248 57.344 77.824 98.304z" />
<glyph unicode="&#xe912;" glyph-name="user" d="M512-8.704c-90.112 0-362.496 0-362.496 163.84 0 145.408 206.848 161.792 362.496 161.792 90.112 0 362.496 0 362.496-163.84 0-145.408-206.848-161.792-362.496-161.792zM512 267.776c-210.944 0-313.344-36.864-313.344-112.64s104.448-114.688 313.344-114.688c210.944 0 313.344 36.864 313.344 112.64s-104.448 114.688-313.344 114.688zM512 423.424v0c-133.12 0-241.664 108.544-239.616 239.616 0 133.12 108.544 239.616 239.616 239.616 133.12 0 239.616-108.544 239.616-239.616s-106.496-239.616-239.616-239.616zM512 857.6c-106.496 0-192.512-86.016-192.512-192.512s86.016-192.512 190.464-192.512l2.048-24.576v24.576c106.496 0 192.512 86.016 192.512 192.512s-86.016 192.512-192.512 192.512z" />
<glyph unicode="&#xe913;" glyph-name="write-review" d="M512 32.256c-6.144 0-12.288 2.048-16.384 8.192l-188.416 188.416h-137.216c-32.768 0-63.488 12.288-86.016 36.864s-36.864 53.248-36.864 86.016v391.168c0 32.768 12.288 63.488 36.864 86.016s53.248 36.864 86.016 36.864h686.080c32.768 0 63.488-12.288 86.016-36.864s36.864-53.248 36.864-86.016v-391.168c0-32.768-12.288-63.488-36.864-86.016s-53.248-36.864-86.016-36.864h-137.216l-190.464-190.464c-4.096-4.096-10.24-6.144-16.384-6.144zM169.984 814.592c-18.432 0-38.912-8.192-51.2-22.528-16.384-12.288-22.528-30.72-22.528-49.152v-391.168c0-18.432 8.192-38.912 22.528-51.2s32.768-22.528 51.2-22.528h147.456c6.144 0 12.288-2.048 16.384-8.192l178.176-178.176 178.176 178.176c4.096 4.096 10.24 8.192 16.384 8.192h147.456c18.432 0 38.912 8.192 51.2 22.528s22.528 32.768 22.528 51.2v391.168c0 18.432-8.192 38.912-22.528 51.2-14.336 14.336-32.768 22.528-51.2 22.528h-684.032zM462.848 423.424h-196.608c-14.336 0-24.576 10.24-24.576 24.576s10.24 24.576 24.576 24.576h196.608c14.336 0 24.576-10.24 24.576-24.576s-10.24-24.576-24.576-24.576zM757.76 620.032h-491.52c-14.336 0-24.576 10.24-24.576 24.576s10.24 24.576 24.576 24.576h491.52c14.336 0 24.576-10.24 24.576-24.576s-12.288-24.576-24.576-24.576z" />
</font>
</defs>
</svg>
