<svg width="139" height="48" viewBox="0 0 139 48" fill="none" xmlns="http://www.w3.org/2000/svg">
<path d="M14.868 32.536C16.188 32.536 17.424 32.26 18.576 31.708C19.728 31.156 20.748 30.364 21.636 29.332L25.056 32.716C23.856 34.132 22.32 35.26 20.448 36.1C18.6 36.94 16.692 37.36 14.724 37.36C12.828 37.36 11.052 37.024 9.396 36.352C7.764 35.68 6.348 34.768 5.148 33.616C3.948 32.464 3 31.096 2.304 29.512C1.632 27.928 1.296 26.224 1.296 24.4C1.296 22.576 1.644 20.872 2.34 19.288C3.036 17.68 3.984 16.3 5.184 15.148C6.384 13.996 7.8 13.084 9.432 12.412C11.088 11.74 12.852 11.404 14.724 11.404C16.74 11.404 18.696 11.836 20.592 12.7C22.488 13.54 24.024 14.68 25.2 16.12L21.672 19.612C20.784 18.508 19.74 17.668 18.54 17.092C17.34 16.492 16.068 16.192 14.724 16.192C13.596 16.192 12.528 16.408 11.52 16.84C10.536 17.248 9.684 17.824 8.964 18.568C8.244 19.288 7.68 20.152 7.272 21.16C6.864 22.144 6.66 23.224 6.66 24.4C6.66 25.552 6.864 26.632 7.272 27.64C7.704 28.624 8.28 29.476 9 30.196C9.744 30.916 10.608 31.492 11.592 31.924C12.6 32.332 13.692 32.536 14.868 32.536ZM32.7158 10.72V37H27.7838V11.8L32.7158 10.72ZM61.3125 31.708V22.384H57.4605V18.244H61.3125V13.456L66.2445 12.34V18.244H71.5725V22.384H66.2445V30.7C66.2445 31.588 66.4365 32.212 66.8205 32.572C67.2045 32.932 67.8765 33.112 68.8365 33.112C69.2925 33.112 69.7245 33.088 70.1325 33.04C70.5405 32.968 70.9845 32.848 71.4645 32.68V36.712C70.9365 36.88 70.3005 37.012 69.5565 37.108C68.8125 37.228 68.1765 37.288 67.6485 37.288C65.5605 37.288 63.9765 36.82 62.8965 35.884C61.8405 34.924 61.3125 33.532 61.3125 31.708ZM74.0143 37V11.8L78.9463 10.72V19.72C79.6663 19.12 80.4583 18.664 81.3223 18.352C82.2103 18.04 83.1703 17.884 84.2023 17.884C86.3623 17.884 88.1383 18.58 89.5303 19.972C90.9223 21.364 91.6183 23.152 91.6183 25.336V37H86.6863V26.056C86.6863 24.88 86.3263 23.932 85.6063 23.212C84.9103 22.492 83.9743 22.132 82.7983 22.132C81.9823 22.132 81.2383 22.3 80.5663 22.636C79.9183 22.948 79.3783 23.404 78.9463 24.004V37H74.0143ZM97.8022 16.012C97.0342 16.012 96.3742 15.736 95.8222 15.184C95.2702 14.632 94.9942 13.972 94.9942 13.204C94.9942 12.436 95.2702 11.776 95.8222 11.224C96.3742 10.672 97.0342 10.396 97.8022 10.396C98.5702 10.396 99.2302 10.672 99.7822 11.224C100.334 11.776 100.61 12.436 100.61 13.204C100.61 13.972 100.334 14.632 99.7822 15.184C99.2302 15.736 98.5702 16.012 97.8022 16.012ZM100.286 18.244V37H95.3542V18.244H100.286ZM102.847 18.244H107.023V16.444C107.023 14.356 107.635 12.748 108.859 11.62C110.083 10.492 111.847 9.928 114.151 9.928C114.655 9.928 115.171 9.964 115.699 10.036C116.227 10.084 116.683 10.156 117.067 10.252V14.392C116.611 14.296 116.203 14.224 115.843 14.176C115.507 14.128 115.147 14.104 114.763 14.104C113.827 14.104 113.119 14.308 112.639 14.716C112.183 15.124 111.955 15.736 111.955 16.552V18.244H117.067V22.384H111.955V37H107.023V22.384H102.847V18.244ZM125.075 37.864L125.363 37.18L118.055 18.244H123.491L128.135 31.024L133.463 18.244H138.791L130.151 38.476C129.191 40.732 128.075 42.34 126.803 43.3C125.531 44.26 123.875 44.74 121.835 44.74C121.403 44.74 120.983 44.716 120.575 44.668C120.191 44.644 119.879 44.596 119.639 44.524V40.276C119.879 40.324 120.131 40.36 120.395 40.384C120.659 40.408 120.983 40.42 121.367 40.42C122.255 40.42 122.999 40.204 123.599 39.772C124.223 39.34 124.715 38.704 125.075 37.864Z" fill="black"/>
<path d="M35.7089 27.64C35.7089 26.272 35.9609 25 36.4649 23.824C36.9929 22.624 37.7009 21.592 38.5889 20.728C39.5009 19.84 40.5689 19.144 41.7929 18.64C43.0169 18.136 44.3249 17.884 45.7169 17.884C47.1089 17.884 48.4169 18.136 49.6409 18.64C50.8649 19.144 51.9209 19.84 52.8089 20.728C53.7209 21.592 54.4289 22.624 54.9329 23.824C55.4609 25 55.7249 26.272 55.7249 27.64C55.7249 29.008 55.4609 30.292 54.9329 31.492C54.4289 32.668 53.7209 33.688 52.8089 34.552C51.9209 35.416 50.8649 36.1 49.6409 36.604C48.4169 37.108 47.1089 37.36 45.7169 37.36C44.3249 37.36 43.0169 37.108 41.7929 36.604C40.5689 36.1 39.5009 35.416 38.5889 34.552C37.7009 33.688 36.9929 32.668 36.4649 31.492C35.9609 30.292 35.7089 29.008 35.7089 27.64ZM45.7169 33.076C47.1569 33.076 48.3809 32.548 49.3889 31.492C50.3969 30.436 50.9009 29.152 50.9009 27.64C50.9009 26.104 50.3969 24.808 49.3889 23.752C48.3809 22.696 47.1569 22.168 45.7169 22.168C44.2769 22.168 43.0529 22.696 42.0449 23.752C41.0369 24.808 40.5329 26.104 40.5329 27.64C40.5329 29.152 41.0369 30.436 42.0449 31.492C43.0529 32.548 44.2769 33.076 45.7169 33.076Z" fill="#EE6C4D"/>
<circle cx="127.5" cy="12.5" r="3.5" fill="#EE6C4D"/>
</svg>
