<svg width="35" height="22" viewBox="0 0 35 22" fill="none" xmlns="http://www.w3.org/2000/svg">
<path fill-rule="evenodd" clip-rule="evenodd" d="M34.4306 10.7707C34.4305 12.5812 33.9665 14.3615 33.0831 15.9418C32.1997 17.5221 30.9262 18.8499 29.3841 19.7984C27.842 20.7469 26.0826 21.2847 24.2737 21.3604C22.4648 21.436 20.6666 21.0471 19.0506 20.2307C21.4638 18.0968 22.9711 15.122 23.2648 11.9141C23.5584 8.70623 22.6162 5.50726 20.6306 2.97067C20.1546 2.36487 19.6185 1.80871 19.0306 1.31067C20.647 0.486603 22.448 0.0916252 24.2609 0.163614C26.0737 0.235604 27.8377 0.772146 29.3837 1.72179C30.9296 2.67143 32.2056 4.00233 33.0894 5.58685C33.9731 7.17137 34.435 8.95637 34.4306 10.7707ZM15.4906 20.2306C13.8731 21.0521 12.072 21.4451 10.2593 21.372C8.44656 21.299 6.68287 20.7624 5.13667 19.8135C3.59047 18.8645 2.31342 17.535 1.4275 15.9518C0.541591 14.3687 0.076416 12.5848 0.076416 10.7706C0.076416 8.95648 0.541591 7.17261 1.4275 5.58946C2.31342 4.00631 3.59047 2.67677 5.13667 1.72784C6.68287 0.778903 8.44656 0.242287 10.2593 0.169248C12.072 0.0962096 13.8731 0.489189 15.4906 1.31065C14.1395 2.48741 13.0578 3.94154 12.3192 5.574C11.5806 7.20645 11.2025 8.9789 11.2106 10.7706C11.2142 12.5605 11.5975 14.3293 12.3353 15.96C13.0731 17.5908 14.1486 19.0464 15.4906 20.2306ZM14.2813 15.408C14.9843 16.8528 16.0064 18.1189 17.2706 19.1107H17.2716C18.5341 18.1178 19.5546 16.8513 20.2563 15.4066C20.9581 13.9619 21.3227 12.3768 21.3226 10.7707C21.3225 9.16449 20.9578 7.57929 20.2559 6.1346C19.554 4.68991 18.5332 3.42344 17.2706 2.43066C16.0064 3.42238 14.9843 4.68851 14.2813 6.13335C13.5784 7.57818 13.2131 9.16391 13.2131 10.7707C13.2131 12.3774 13.5784 13.9631 14.2813 15.408Z" fill="#8B9BB6"/>
</svg>
