<svg width="60" height="54" viewBox="0 0 60 54" fill="none" xmlns="http://www.w3.org/2000/svg">
<g clip-path="url(#clip0)">
<path d="M30.001 52.7165C14.1644 52.7165 1.28052 39.9781 1.28052 24.3205V8.31352C1.28052 4.4238 4.48105 1.25928 8.41502 1.25928H51.5869C55.5201 1.25928 58.7199 4.4238 58.7199 8.31352V24.3205C58.7199 39.9781 45.8367 52.7165 30.001 52.7165ZM8.41502 4.69557C6.39818 4.69557 4.75734 6.31858 4.75734 8.31352V24.3205C4.75734 38.0833 16.0816 49.2802 30.001 49.2802C43.9203 49.2802 55.2446 38.0833 55.2446 24.3205V8.31352C55.2446 6.31858 53.6037 4.69557 51.5869 4.69557H8.41502Z" fill="#293241"/>
<path d="M30.001 51.9446C45.4054 51.9446 57.9395 39.5514 57.9395 24.3202V8.31329C57.9395 4.84795 55.0903 2.03071 51.5869 2.03071H8.41503C4.91169 2.03071 2.06097 4.84795 2.06097 8.31329V24.3202C2.06097 39.5514 14.5951 51.9446 30.001 51.9446ZM8.41503 3.92368H51.5869C54.0332 3.92368 56.025 5.89295 56.025 8.31329V24.3202C56.025 38.5079 44.3499 50.0516 30.001 50.0516C15.6506 50.0516 3.9769 38.5079 3.9769 24.3202V8.31329C3.9769 5.89295 5.96858 3.92368 8.41503 3.92368ZM30.001 53.488C13.7341 53.488 0.5 40.4034 0.5 24.3202V8.31329C0.5 3.99802 4.05066 0.487305 8.41503 0.487305H51.5869C55.9505 0.487305 59.5005 3.99802 59.5005 8.31329V24.3202C59.5005 40.4034 46.2671 53.488 30.001 53.488ZM8.41503 5.46708C6.82858 5.46708 5.53787 6.7439 5.53787 8.31329V24.3202C5.53787 37.6575 16.5119 48.5082 30.001 48.5082C43.49 48.5082 54.464 37.6575 54.464 24.3202V8.31329C54.464 6.7439 53.1733 5.46708 51.5869 5.46708H8.41503Z" fill="#293241"/>
<path d="M30.0001 34.0416C29.5362 34.0416 29.0992 33.8636 28.7696 33.5402L17.9765 22.8672C17.6489 22.5431 17.4687 22.111 17.4694 21.6504C17.47 21.1904 17.6512 20.7583 17.9795 20.4338C18.307 20.11 18.7427 19.9316 19.2064 19.9316C19.6694 19.9316 20.106 20.1098 20.4355 20.4332L30.0001 29.894L39.5624 20.4353C39.8942 20.1098 40.3302 19.9316 40.7923 19.9316C41.2569 19.9316 41.6937 20.1105 42.0221 20.4352C42.6986 21.1065 42.698 22.1979 42.0217 22.869L31.2299 33.5394C30.8989 33.8641 30.4629 34.0416 30.0001 34.0416Z" fill="#EE6B51"/>
<path d="M30.0002 33.2697C30.2555 33.2697 30.4969 33.1711 30.678 32.9935L41.4689 22.324C41.8423 21.9535 41.8423 21.3498 41.4703 20.9807C41.2906 20.803 41.0492 20.7031 40.7924 20.7031C40.5355 20.7031 40.2955 20.803 40.1145 20.9807L30.0002 30.9853L19.8858 20.9807C19.7047 20.803 19.4633 20.7031 19.2065 20.7031C18.9511 20.7031 18.7096 20.803 18.5313 20.9793C18.1566 21.3498 18.1566 21.9535 18.5285 22.3213L29.3194 32.9921C29.5018 33.1711 29.7432 33.2697 30.0002 33.2697ZM30.0002 34.8131C29.329 34.8131 28.6968 34.5555 28.22 34.0878L17.4247 23.4125C16.9493 22.9425 16.688 22.3163 16.689 21.6491C16.6899 20.9833 16.9522 20.3578 17.4276 19.8878C17.9025 19.4183 18.5342 19.1597 19.2065 19.1597C19.8769 19.1597 20.5086 19.4174 20.9854 19.8853L30.0002 28.8022L39.0105 19.8896C39.4916 19.4174 40.1229 19.1597 40.7924 19.1597C41.4655 19.1597 42.0982 19.4188 42.574 19.8893C43.5542 20.862 43.5536 22.4419 42.5746 23.4134L31.7818 34.0848C31.3014 34.556 30.6703 34.8131 30.0002 34.8131Z" fill="#EE6B51"/>
</g>
<defs>
<clipPath id="clip0">
<rect width="59" height="53" fill="white" transform="translate(0.5 0.487305)"/>
</clipPath>
</defs>
</svg>
