<svg width="12" height="12" viewBox="0 0 12 12" fill="none" xmlns="http://www.w3.org/2000/svg">
<path fill-rule="evenodd" clip-rule="evenodd" d="M6.73617 0.477887L7.95445 3.05489C8.07384 3.30787 8.30431 3.4833 8.57157 3.52389L11.2969 3.93926C11.9702 4.04219 12.2382 4.90627 11.7509 5.40137L9.78012 7.40643C9.58645 7.6036 9.49829 7.88703 9.5441 8.16539L10.0092 10.9961C10.1237 11.6964 9.41985 12.2306 8.818 11.8993L6.38214 10.5619C6.14335 10.4307 5.85735 10.4307 5.61786 10.5619L3.182 11.8993C2.58015 12.2306 1.87626 11.6964 1.9915 10.9961L2.4559 8.16539C2.50171 7.88703 2.41355 7.6036 2.21988 7.40643L0.24912 5.40137C-0.23819 4.90627 0.0297611 4.04219 0.703109 3.93926L3.42843 3.52389C3.69569 3.4833 3.92685 3.30787 4.04625 3.05489L5.26383 0.477887C5.5651 -0.159296 6.4349 -0.159296 6.73617 0.477887Z" fill="#F2B94A"/>
</svg>
