<svg width="65" height="48" viewBox="0 0 65 48" fill="none" xmlns="http://www.w3.org/2000/svg">
<g clip-path="url(#clip0)">
<path d="M56.4124 47.1621H8.58894C4.3099 47.1621 0.828674 44.0133 0.828674 40.1429V7.83177C0.828674 3.96134 4.3099 0.8125 8.58894 0.8125H56.4124C60.6907 0.8125 64.1713 3.96134 64.1713 7.83177V40.1429C64.1713 44.0133 60.6907 47.1621 56.4124 47.1621ZM8.58894 4.07889C6.27438 4.07889 4.39134 5.76244 4.39134 7.83177V40.1429C4.39134 42.2122 6.27438 43.8958 8.58894 43.8958H56.4124C58.7263 43.8958 60.6087 42.2122 60.6087 40.1429V7.83177C60.6087 5.76244 58.7263 4.07889 56.4124 4.07889H8.58894Z" fill="#293241"/>
<path d="M56.4124 46.8369C60.5088 46.8369 63.8427 43.8333 63.8427 40.1429V7.83178C63.8427 4.14134 60.5088 1.13772 56.4124 1.13772H8.58892C4.49251 1.13772 1.15731 4.14134 1.15731 7.83178V40.1429C1.15731 43.8333 4.49251 46.8369 8.58892 46.8369H56.4124ZM8.58892 3.75369H56.4124C58.9063 3.75369 60.9374 5.58265 60.9374 7.83178V40.1429C60.9374 42.3907 58.9063 44.221 56.4124 44.221H8.58892C6.09375 44.221 4.06267 42.3907 4.06267 40.1429V7.83178C4.06267 5.58265 6.09375 3.75369 8.58892 3.75369ZM56.4124 47.4873H8.58892C4.12871 47.4873 0.5 44.1926 0.5 40.1429V7.83178C0.5 3.78204 4.12871 0.487305 8.58892 0.487305H56.4124C60.8719 0.487305 64.5 3.78204 64.5 7.83178V40.1429C64.5 44.1926 60.8719 47.4873 56.4124 47.4873ZM8.58892 4.4041C6.45554 4.4041 4.71998 5.94176 4.71998 7.83178V40.1429C4.71998 42.0329 6.45554 43.5706 8.58892 43.5706H56.4124C58.5451 43.5706 60.2801 42.0329 60.2801 40.1429V7.83178C60.2801 5.94176 58.5451 4.4041 56.4124 4.4041H8.58892Z" fill="#293241"/>
<path d="M32.5926 26.5584C30.6373 26.5584 28.7651 25.9772 27.1785 24.8775L12.0591 14.4046C11.7192 14.1705 11.4921 13.8185 11.4204 13.4139C11.3483 13.01 11.4398 12.6033 11.6778 12.2689C11.9709 11.8527 12.4339 11.6133 12.9469 11.6133C13.168 11.6133 13.5019 11.6614 13.8371 11.8909L28.9556 22.3635C30.0239 23.1038 31.282 23.495 32.594 23.495C33.9044 23.495 35.162 23.1033 36.231 22.3623L51.1639 12.0181C51.4948 11.7899 51.8279 11.7421 52.0492 11.7421C52.5578 11.7421 53.0345 11.9871 53.3243 12.3975C53.5606 12.7324 53.6513 13.1391 53.5797 13.5427C53.5079 13.9464 53.2815 14.2981 52.9424 14.5333L38.0081 24.8775C36.4215 25.9772 34.5489 26.5584 32.5926 26.5584Z" fill="#EE6B51"/>
<path d="M32.5926 26.2332C34.4805 26.2332 36.2881 25.6726 37.8196 24.6111L52.7537 14.267C53.022 14.081 53.1995 13.8039 53.256 13.4865C53.3125 13.1678 53.2402 12.8465 53.0548 12.5837C52.8261 12.2598 52.4501 12.0673 52.0492 12.0673C51.8743 12.0673 51.6127 12.105 51.3524 12.2845L36.4195 22.6287C35.2955 23.4079 33.973 23.8202 32.594 23.8202C31.2123 23.8202 29.8898 23.4079 28.7671 22.6299L13.6502 12.1583C13.3859 11.9775 13.123 11.9385 12.9469 11.9385C12.542 11.9385 12.1792 12.1258 11.9465 12.4562C11.7585 12.7203 11.6875 13.0403 11.744 13.3577C11.8005 13.6764 11.9793 13.9535 12.2475 14.1382L27.367 24.6111C28.8985 25.6726 30.7061 26.2332 32.5926 26.2332ZM32.5926 26.8837C30.5695 26.8837 28.6321 26.282 26.9899 25.1439L11.8706 14.671C11.4589 14.3876 11.1836 13.9607 11.0966 13.4701C11.0094 12.9806 11.1203 12.4873 11.4091 12.0816C11.7636 11.5783 12.3248 11.2881 12.9469 11.2881C13.2148 11.2881 13.6191 11.3462 14.0241 11.6234L29.1441 22.0971C30.1568 22.7989 31.3498 23.1698 32.594 23.1698C33.8366 23.1698 35.029 22.7985 36.0424 22.096L50.9754 11.7517C51.3769 11.4748 51.7808 11.4169 52.0492 11.4169C52.6651 11.4169 53.2425 11.7138 53.5937 12.2112C53.8802 12.6173 53.9901 13.1101 53.9033 13.599C53.8163 14.0883 53.542 14.5146 53.131 14.7996L38.1966 25.144C36.5545 26.282 34.6166 26.8837 32.5926 26.8837Z" fill="#EE6B51"/>
</g>
<defs>
<clipPath id="clip0">
<rect width="64" height="47" fill="white" transform="translate(0.5 0.487305)"/>
</clipPath>
</defs>
</svg>
